<?xml version="1.0" encoding="utf-8"?>
<!-- Generator: Adobe Illustrator 24.0.3, SVG Export Plug-In . SVG Version: 6.00 Build 0)  -->
<svg version="1.1" id="Layer_1" xmlns="http://www.w3.org/2000/svg" xmlns:xlink="http://www.w3.org/1999/xlink" x="0px" y="0px"
	 viewBox="0 0 510 510" style="enable-background:new 0 0 510 510;" xml:space="preserve">
<style type="text/css">
	.st0{fill:#FFFFFF;}
</style>
<path class="st0" d="M257.92,4.67C119.86,2.81,6.43,113.21,4.56,251.27s108.53,251.49,246.59,253.36
	c138.06,1.87,251.49-108.53,253.36-246.59C506.38,119.98,395.98,6.54,257.92,4.67z M358.71,183.06c4.02,0,7.45,1.43,10.29,4.3
	c2.84,2.86,4.26,6.31,4.26,10.33c0,4.08-1.42,7.55-4.26,10.41c-2.84,2.86-6.27,4.3-10.29,4.3s-7.47-1.44-10.33-4.33
	c-2.86-2.89-4.3-6.35-4.3-10.37c0-4.02,1.43-7.47,4.3-10.33C351.24,184.49,354.68,183.06,358.71,183.06z M109.42,227.87H98.43v70.35
	h-31.5v-70.35H55.79l42.64-44.11v32.97h10.99V227.87z M147.04,299.62c-11.66-0.98-20.56-5.34-26.7-13.08
	c-5.83-7.28-8.75-16.9-8.75-28.87c0-12.02,2.89-21.7,8.67-29.02c6.14-7.74,15.07-12.18,26.78-13.31V299.62z M182.71,286.54
	c-6.19,7.64-15.12,12-26.78,13.08v-84.28c11.76,1.14,20.74,5.57,26.93,13.31c5.83,7.33,8.75,17,8.75,29.02
	C191.61,269.59,188.65,279.21,182.71,286.54z M229.69,330.65h-31.58V216.73h31.58V330.65z M264.91,285.69
	c-6.24,7.33-15.07,11.51-26.47,12.54v-81.5c11.56,1.14,20.43,5.37,26.62,12.69c5.98,7.07,8.98,16.49,8.98,28.25
	C274.04,269.23,270.99,278.57,264.91,285.69z M312.27,298.22h-31.58v-81.5h31.58V298.22z M308.17,207.52
	c-3.4,2.68-7.33,4.02-11.76,4.02c-4.44,0-8.33-1.34-11.69-4.02c-3.61-2.84-5.42-6.42-5.42-10.76c0-4.28,1.83-7.82,5.5-10.6
	c3.35-2.53,7.22-3.79,11.61-3.79c4.38,0,8.28,1.29,11.69,3.87c3.71,2.79,5.57,6.3,5.57,10.53
	C313.66,201.09,311.83,204.68,308.17,207.52z M426.42,330.65h-31.5v-47.09l-24.38-56.14v0.45h-13.47v70.35h-31.5v-70.35h-8.13
	v-11.14h8.44c-0.21-1.65-0.31-3.27-0.31-4.86c0-7.26,1.77-13.62,5.3-19.07c4.1-6.38,9.61-9.63,16.52-9.73
	c-5.47,3.55-8.2,8.47-8.2,14.75c0,12.61,7.8,18.92,23.41,18.92h3.29h4.64h30.71l25.17,60.25V330.65z M431.38,266.34l-20.9-49.61
	h42.8L431.38,266.34z"/>
</svg>
